<svg width="72" height="60" viewBox="0 0 72 60" fill="none" xmlns="http://www.w3.org/2000/svg">
<path d="M67.1875 0.25H4.6875C2.09885 0.25 0 2.34885 0 4.9375V42.4375C0 45.0262 2.09885 47.125 4.6875 47.125H26.5625V53.6359C26.561 55.2167 25.2792 56.4985 23.6984 56.5H18.75V59.625H50V56.5H45.0516C43.4708 56.4985 42.189 55.2167 42.1875 53.6359V47.125H67.1875C69.7762 47.125 71.875 45.0262 71.875 42.4375V4.9375C71.875 2.34885 69.7762 0.25 67.1875 0.25ZM28.9566 56.5C29.4373 55.6219 29.689 54.6369 29.6875 53.6359V47.125H32.8125V53.7656H35.9375V47.125H39.0625V53.6359C39.061 54.6369 39.3127 55.6219 39.7934 56.5H28.9566ZM68.75 42.4375C68.75 43.3004 68.0504 44 67.1875 44H4.6875C3.82462 44 3.125 43.3004 3.125 42.4375V34.625H68.75V42.4375ZM68.75 31.5H3.125V4.9375C3.125 4.07462 3.82462 3.375 4.6875 3.375H67.1875C68.0504 3.375 68.75 4.07462 68.75 4.9375V31.5Z" fill="url(#paint0_linear_10112_13)"/>
<defs>
<linearGradient id="paint0_linear_10112_13" x1="7.34634" y1="0.249994" x2="69.1841" y2="5.82959" gradientUnits="userSpaceOnUse">
<stop stop-color="#C89AFC"/>
<stop offset="1" stop-color="#7C6AFA"/>
</linearGradient>
</defs>
</svg>
